<?xml version="1.0" encoding="utf-8"?>
<!-- Svg Vector Icons : http://www.onlinewebfonts.com/icon -->
<!DOCTYPE svg PUBLIC "-//W3C//DTD SVG 1.1//EN" "http://www.w3.org/Graphics/SVG/1.1/DTD/svg11.dtd">
<svg version="1.1" xmlns="http://www.w3.org/2000/svg" xmlns:xlink="http://www.w3.org/1999/xlink" x="0px" y="0px" viewBox="0 0 1000 1000" enable-background="new 0 0 1000 1000" xml:space="preserve">
<metadata> Svg Vector Icons : http://www.onlinewebfonts.com/icon </metadata>
<g><g transform="translate(0.000000,511.000000) scale(0.100000,-0.100000)"><path d="M853.5,4965.1c-304.3-103.4-513-347.2-563.7-661.2c-25.4-158-25.4-1800.2,0-1956.2c25.4-158,120.9-343.3,230.1-452.5l91.7-91.7l-91.7-93.6c-111.2-115.1-204.8-298.4-230.1-454.4c-25.4-156-25.4-1827.5,0-1962.1C321-864.6,412.7-1044,520-1151.3l95.6-95.6l-95.6-95.6c-115.1-113.1-204.8-284.7-230.1-444.7c-27.3-163.8-25.4-1823.6,2-1971.8c48.8-267.2,214.5-485.7,462.2-606.6l148.2-74.1l1829.5-5.9l1831.4-3.9l46.8,46.8c62.4,62.4,62.4,148.2,2,220.4l-46.8,54.6l-1802.2,9.8c-2028.4,11.7-1868.5-1.9-2020.6,163.8c-142.4,154.1-142.4,159.9-136.5,1222.9l5.8,944l58.5,105.3c66.3,120.9,193.1,224.3,316,253.6c54.6,13.6,665.1,21.4,1829.5,21.4h1747.6l46.8,48.8c81.9,80,60.5,204.8-42.9,259.4c-31.2,17.6-503.2,23.4-1804.1,23.4H1001.7l-99.5,46.8c-122.9,56.6-234,185.3-271.1,312.1c-42.9,142.4-42.9,1850.9,0,1993.3c35.1,119,120.9,226.3,239.9,296.5l91.7,52.7l3666.7,5.8c4025.6,3.9,3762.3,11.7,3912.5-111.2c37.1-31.2,93.6-103.4,124.8-159.9l58.5-105.3l5.8-585.1c2-321.8,9.8-604.6,13.7-630c15.6-66.3,132.6-111.2,208.7-80c31.2,11.7,66.3,41,78,62.4c11.7,25.4,19.5,249.7,19.5,635.8c1.9,491.5-3.9,616.3-29.3,704.1c-39,130.7-119,261.4-226.3,362.8l-79.9,78l89.7,85.8c101.4,101.4,165.8,202.8,212.6,341.3c29.3,85.8,33.2,208.7,33.2,1084.4c0,700.2-7.8,1010.3-23.4,1072.7c-76.1,278.9-286.7,497.3-563.7,583.2c-120.9,39-193.1,39-3803.3,39l-3678.5-2L853.5,4965.1z M8432.7,4631.6c107.3-48.8,204.8-148.2,259.4-261.4c29.3-66.3,33.2-159.9,33.2-1037.6v-965.4l-56.6-115.1c-58.5-117-163.8-212.6-290.6-259.4c-46.8-17.6-967.4-23.4-3701.9-23.4c-4109.5-2-3750.6-15.6-3920.3,154.1c-154.1,154.1-154.1,158-154.1,1199.5c0,1006.4,2,1029.8,130.7,1178c39,46.8,117,105.3,169.7,130.7l99.5,46.8h3666.7h3666.7L8432.7,4631.6z"/><path d="M1348.9,3949l-54.6-46.8l-5.8-553.9c-3.9-598.8,0-628,101.4-674.8c64.4-33.2,134.6-17.6,187.2,39c37.1,41,39,66.3,39,614.4v573.4l-48.8,46.8C1506.9,4009.4,1421.1,4009.4,1348.9,3949z"/><path d="M6421.9,3441.9c-101.4-85.8-58.5-245.8,70.2-275c156-35.1,261.4,159.9,146.3,273.1C6577.9,3502.3,6492.1,3502.3,6421.9,3441.9z"/><path d="M7087,3439.9c-68.3-66.3-64.4-152.1,7.8-226.2c35.1-33.2,78-56.6,109.2-56.6c62.4,0,165.8,95.6,165.8,154.1C7369.8,3463.3,7190.3,3545.3,7087,3439.9z"/><path d="M7769.6,3439.9c-80-78-64.4-204.8,33.1-255.5c119-60.5,230.2,11.7,230.2,150.2C8032.9,3473.1,7867.1,3539.4,7769.6,3439.9z"/><path d="M1348.9,906.4l-54.6-46.8V280.3V-299l54.6-46.8c72.2-60.5,158-60.5,218.5,1.9l48.8,46.8v565.6c0,310.1-5.8,579.3-11.7,596.8c-15.6,37.1-107.3,87.8-161.9,87.8C1421.1,953.2,1378.1,931.7,1348.9,906.4z"/><path d="M7096.7-449.2c-713.8-158-1281.4-620.2-1564.2-1273.6c-358.9-830.8-177.5-1786.6,462.2-2424.3c665.1-665.1,1677.3-832.8,2514.1-415.4c214.5,107.3,364.7,212.6,542.2,382.3C10283.7-3002.2,9759-938.7,8109-478.4C7855.4-408.2,7348.3-392.6,7096.7-449.2z M7972.4-784.6c195-44.9,483.7-177.5,653.4-298.4c241.8-173.6,477.8-458.3,608.5-741.2c128.8-278.9,154.1-411.5,152.1-782.1c0-302.3-5.9-347.2-52.7-503.2c-103.4-337.4-261.3-592.9-514.9-834.8c-735.3-702.1-1872.4-690.5-2592.1,29.3c-731.4,733.3-731.4,1903.6,1.9,2635C6687.1-819.7,7336.6-636.4,7972.4-784.6z"/><path d="M7451.7-1440c-70.2-27.3-81.9-111.2-81.9-561.7v-438.8h-450.5c-259.4,0-464.2-7.8-485.7-19.5c-19.5-9.8-46.8-48.8-58.5-85.8c-25.3-81.9,11.7-175.5,80-197c23.4-7.8,237.9-13.6,477.9-13.6l436.9-1.9v-436.9c0-345.2,5.8-448.6,29.3-491.5c33.2-66.3,128.7-105.3,191.1-81.9c97.5,37,101.4,56.5,111.2,546.1l9.7,460.3l458.4,3.9l458.3,3.9l42.9,50.7c58.5,68.3,58.5,154.1-3.9,214.5l-46.8,48.8h-460.3h-458.3v456.4c0,431-1.9,458.3-40.9,507.1c-31.2,39-56.6,50.7-111.2,48.8C7510.2-1428.3,7465.4-1434.1,7451.7-1440z"/><path d="M1382-2114.8c-93.6-46.8-97.5-80-93.6-670.9l5.8-548.1l46.8-50.7c64.4-68.3,161.9-68.3,226.3-1.9l48.8,46.8v575.4v573.4l-60.5,50.7C1489.3-2083.6,1454.2-2077.8,1382-2114.8z"/></g></g>
</svg>