<?xml version="1.0" encoding="utf-8"?>
<!-- Svg Vector Icons : http://www.onlinewebfonts.com/icon -->
<!DOCTYPE svg PUBLIC "-//W3C//DTD SVG 1.1//EN" "http://www.w3.org/Graphics/SVG/1.1/DTD/svg11.dtd">
<svg version="1.1" xmlns="http://www.w3.org/2000/svg" xmlns:xlink="http://www.w3.org/1999/xlink" x="0px" y="0px" viewBox="0 0 1000 1000" enable-background="new 0 0 1000 1000" xml:space="preserve">
<metadata> Svg Vector Icons : http://www.onlinewebfonts.com/icon </metadata>
<g><path d="M388.3,977.1l-18.9-5.2c-80.2-22.2-153.8-64.5-212.8-122.6l-14-13.8l12.4-15.2c30.1-36.6,34.3-86.6,10.8-127.3c-22.9-39.7-69.5-62-115.4-54.4l-19.3,3.2l-5-19C15.4,581.4,10,540.2,10,500c0-40.1,5.4-81.4,16.1-122.7l5-19l19.3,3.1c46.1,7.5,92.6-14.7,115.5-54.3c23.1-40.1,18.7-91.3-10.9-127.3l-12.5-15.2l14-13.8c59-58,132.6-100.5,212.9-122.7l18.9-5.2l6.9,18.3c16.4,43.6,58.5,72.8,104.8,72.8c47,0,88.1-28.6,104.8-72.8l7-18.3l18.9,5.2c80.2,22.2,153.7,64.6,212.7,122.7l14,13.8L845,179.8c-29.6,36-33.9,87.2-10.8,127.3c22.9,39.6,69.2,61.8,115.5,54.3l19.3-3.1l5,19C984.5,418.7,990,460,990,500c0,39.9-5.5,81.3-16.1,122.8l-5,19l-19.4-3.2c-45.9-7.7-92.5,14.7-115.4,54.4c-23.2,40-18.8,91.2,10.8,127.3l12.4,15.2l-14,13.8c-59,58.1-132.6,100.4-212.7,122.6l-18.9,5.2l-7-18.3c-16.7-44.2-57.9-72.8-104.8-72.8c-46.9,0-88,28.6-104.8,72.8L388.3,977.1z M200,831.2c46.9,42.5,102.8,74.6,163.4,94.1c26.7-49.9,79.4-82.3,136.6-82.3c57.3,0,110,32.4,136.7,82.2c60.5-19.4,116.4-51.6,163.3-94.1c-30-48.2-31.7-110-3-159.6c28.4-49.2,82.2-79,139.5-77.3c7-32,10.6-63.6,10.6-94.2c0-30.7-3.5-62.3-10.6-94.2c-55.7,1.8-111.1-28.1-139.5-77.2c-28.7-49.7-26.9-111.5,3-159.7c-46.9-42.5-102.8-74.7-163.3-94.1c-26.8,49.9-79.5,82.3-136.7,82.3c-57.2,0-109.9-32.4-136.7-82.3c-60.5,19.5-116.5,51.7-163.4,94.1c30,48.2,31.8,110,3.1,159.7c-28.4,49.1-81.9,79.1-139.6,77.2C56.5,437.6,53,469.2,53,500c0,30.8,3.5,62.4,10.5,94.2c57.7-1.2,111.2,28.1,139.6,77.3C231.7,721.1,230,783,200,831.2z"/><path d="M485.5,667.7c-92.4,0-167.6-75.3-167.6-167.7c0-92.4,75.2-167.7,167.6-167.7c92.5,0,167.7,75.2,167.7,167.7c0,14.4-1.8,28.7-5.4,42.5c-2.9,11.4-14.6,18.5-26.2,15.4c-11.5-3-18.4-14.7-15.4-26.2c2.7-10.3,4-20.9,4-31.7c0-68.8-56-124.7-124.7-124.7c-68.7,0-124.7,55.9-124.7,124.7c0,68.8,55.9,124.7,124.7,124.7c13,0,25.7-2,38-5.9c11.3-3.5,23.4,2.7,27,14c3.5,11.3-2.7,23.4-14,26.9C520,665,502.9,667.7,485.5,667.7z"/></g>
</svg>